# xmcd
#
# Track frame offsets:
#	150
#	16305
#	30260
#	45150
#	61600
#	75188
#	89750
#	103475
#	116293
#	131635
#	144050
#	157843
#
# Disc length: 2270 seconds
#
# Revision: 0
# Processed by: cddbd v1.5.2PL0 Copyright (c) Steve Scherf et al.
# Submitted via: EasyCDDAExtractor 11.5.3.1
#
DISCID=7e08dc0c
DTITLE=Ole Mogens - Længes Hjem
DYEAR=1995
DGENRE=Country
TTITLE0=Længes Hjem
TTITLE1=Mit Tabte Hjerte
TTITLE2=Der Gror Ikke Mos På Rullesten
TTITLE3=Du Skal Fange Øjeblikket
TTITLE4=Manden På Bænken
TTITLE5=Kom Hjem Min Pige
TTITLE6=Jeg Vil Give Dig En Rose
TTITLE7=Trommeslager
TTITLE8=Vor Eneste Jord
TTITLE9=Ensom Rytter
TTITLE10=Ingen Bryder Livets Cirkel
TTITLE11=En Kold Og Stormful Vinternat
EXTD=
EXTT0=
EXTT1=
EXTT2=
EXTT3=
EXTT4=
EXTT5=
EXTT6=
EXTT7=
EXTT8=
EXTT9=
EXTT10=
EXTT11=
PLAYORDER=
